<?xml version="1.0" standalone="no"?>
<!DOCTYPE svg PUBLIC "-//W3C//DTD SVG 20010904//EN"
 "http://www.w3.org/TR/2001/REC-SVG-20010904/DTD/svg10.dtd">
<svg version="1.0" xmlns="http://www.w3.org/2000/svg"
 width="700.000000pt" height="700.000000pt" viewBox="0 0 700.000000 700.000000"
 preserveAspectRatio="xMidYMid meet">
<metadata>
Created by potrace 1.11, written by Peter Selinger 2001-2013
</metadata>
<g transform="translate(0.000000,700.000000) scale(0.100000,-0.100000)"
fill="#000000" stroke="none">
<path d="M5755 6870 c-121 -71 -231 -135 -245 -143 -14 -7 -333 -193 -710
-412 -377 -219 -707 -412 -735 -427 -27 -16 -57 -33 -65 -38 -8 -5 -91 -53
-185 -108 -214 -124 -243 -141 -281 -162 -17 -10 -152 -89 -300 -175 -148 -87
-285 -167 -304 -177 -40 -23 -760 -442 -950 -553 -157 -92 -725 -422 -765
-445 -44 -25 -196 -113 -381 -221 -88 -52 -312 -182 -497 -289 l-337 -195 0
-192 c0 -106 3 -193 6 -193 3 0 44 23 92 51 48 29 101 60 118 69 82 47 456
264 1014 590 69 40 145 84 170 98 25 14 57 33 72 43 14 11 28 19 31 19 2 0 53
29 113 64 60 34 197 114 304 176 107 62 207 121 222 131 15 11 29 19 32 19 2
0 37 19 78 43 40 24 93 55 118 69 25 14 110 64 190 110 144 85 1026 598 1505
876 377 219 382 221 1095 637 366 213 685 399 710 413 82 46 765 444 769 448
2 2 -146 4 -330 4 l-334 -1 -220 -129z"/>
<path d="M3219 6778 c-94 -25 -159 -60 -229 -125 -122 -113 -180 -296 -143
-455 75 -326 442 -490 742 -333 242 127 336 409 217 651 -104 210 -355 322
-587 262z"/>
<path d="M6340 6569 c-335 -44 -532 -396 -393 -698 74 -161 257 -279 441 -286
97 -3 163 10 247 49 315 146 386 546 142 790 -60 59 -160 119 -217 129 -14 3
-36 8 -50 11 -41 11 -111 12 -170 5z"/>
<path d="M1455 6289 c-151 -29 -297 -136 -365 -269 -85 -164 -52 -408 73 -541
70 -74 182 -142 254 -155 14 -3 30 -7 34 -10 20 -12 188 -4 239 12 187 55 327
203 366 385 9 46 6 148 -6 201 -22 91 -60 159 -130 229 -98 100 -208 149 -345
153 -44 2 -98 0 -120 -5z"/>
<path d="M5506 5263 c-190 -43 -343 -194 -386 -382 -16 -66 -8 -187 15 -256
75 -218 329 -373 547 -334 35 6 40 4 64 -30 192 -259 561 -291 789 -67 278
273 142 734 -245 827 -30 7 -93 12 -139 11 -77 -2 -86 0 -100 21 -62 89 -161
162 -266 197 -78 26 -198 32 -279 13z"/>
<path d="M3877 4174 c-1 -2 -25 -6 -52 -10 -62 -8 -162 -52 -218 -96 -238
-186 -261 -521 -50 -731 156 -157 392 -196 594 -100 266 126 364 450 211 698
-84 138 -244 229 -414 238 -37 2 -69 3 -71 1z"/>
<path d="M1777 3619 c-47 -7 -147 -38 -157 -49 -3 -3 -18 -12 -34 -20 -49 -25
-139 -114 -174 -173 -45 -75 -70 -177 -66 -269 15 -364 410 -583 750 -416 l42
20 63 -64 c276 -277 738 -174 860 191 55 164 11 353 -112 481 -102 106 -205
151 -357 155 -111 4 -168 -8 -257 -52 -46 -22 -50 -23 -62 -7 -109 149 -308
231 -496 203z"/>
<path d="M525 3128 c-118 -22 -252 -113 -323 -219 -91 -136 -103 -328 -29
-480 126 -257 456 -355 716 -213 79 43 110 72 165 149 58 80 87 162 90 254 4
94 -8 149 -50 237 -96 203 -334 317 -569 272z"/>
<path d="M6800 2859 c-138 -32 -351 -81 -410 -94 -8 -2 -53 -13 -100 -24 -47
-11 -97 -22 -110 -25 -14 -2 -87 -19 -164 -36 -76 -17 -146 -33 -155 -35 -9
-2 -68 -16 -131 -30 -63 -15 -122 -28 -130 -30 -8 -2 -105 -25 -215 -50 -110
-26 -211 -49 -224 -51 -13 -3 -141 -32 -285 -65 -144 -33 -272 -63 -286 -65
-14 -3 -61 -14 -105 -24 -94 -22 -344 -79 -371 -84 -11 -2 -59 -14 -109 -26
-49 -12 -99 -23 -110 -26 -11 -2 -90 -20 -175 -39 -85 -20 -164 -38 -175 -40
-11 -3 -81 -19 -155 -36 -74 -17 -193 -44 -265 -60 -71 -16 -148 -34 -170 -39
-37 -9 -415 -96 -460 -105 -11 -3 -90 -21 -175 -40 -85 -20 -166 -38 -180 -41
-13 -3 -63 -14 -110 -25 -47 -12 -96 -23 -110 -25 -14 -3 -61 -14 -105 -24
-105 -25 -174 -41 -205 -46 -14 -3 -43 -10 -65 -16 -22 -5 -47 -12 -55 -13
-141 -31 -267 -59 -400 -91 -36 -9 -76 -18 -90 -20 -24 -4 -87 -19 -213 -49
-34 -8 -72 -17 -85 -20 -13 -2 -31 -6 -40 -9 -9 -3 -28 -7 -42 -10 -46 -9
-214 -47 -270 -61 -30 -8 -66 -16 -80 -19 -14 -2 -80 -17 -147 -33 l-123 -28
0 -171 c0 -94 2 -173 5 -176 3 -3 49 6 103 19 53 13 106 25 117 27 11 3 43 9
70 15 28 6 68 15 90 21 22 6 51 13 65 16 14 3 52 11 85 19 66 16 528 121 566
129 29 6 6 1 354 80 160 37 328 76 375 87 47 11 94 21 105 23 11 3 169 39 350
81 182 42 346 78 365 81 19 3 37 7 40 9 6 4 248 61 320 75 25 5 95 21 155 35
61 15 120 28 133 31 12 2 147 33 300 69 152 35 288 66 302 69 14 2 95 21 180
41 85 20 169 38 185 41 17 3 64 14 105 25 41 11 89 22 105 25 17 3 89 19 160
35 72 17 137 32 145 34 91 20 290 65 301 69 8 3 25 7 39 10 24 4 625 141 1150
261 135 31 254 58 265 60 46 10 163 37 199 46 22 6 49 13 60 15 12 2 63 13
114 25 l92 21 0 174 c0 159 -1 174 -17 173 -10 -1 -92 -19 -183 -40z"/>
<path d="M5400 1484 c-241 -57 -402 -258 -395 -494 2 -85 11 -122 47 -198 34
-70 120 -166 187 -207 79 -49 176 -76 273 -77 48 0 91 3 96 6 5 3 24 8 43 11
101 18 241 121 302 223 171 285 22 644 -303 732 -64 18 -186 20 -250 4z"/>
<path d="M2997 1114 c-225 -58 -382 -266 -373 -492 5 -98 10 -121 49 -201 65
-135 214 -245 369 -271 310 -54 601 178 601 480 1 183 -100 353 -259 437 -112
60 -267 78 -387 47z"/>
</g>
</svg>
