<?xml version="1.0" encoding="UTF-8" standalone="no"?>
<!-- Created with Inkscape (http://www.inkscape.org/) -->

<svg
   xmlns:dc="http://purl.org/dc/elements/1.1/"
   xmlns:cc="http://creativecommons.org/ns#"
   xmlns:rdf="http://www.w3.org/1999/02/22-rdf-syntax-ns#"
   xmlns:svg="http://www.w3.org/2000/svg"
   xmlns="http://www.w3.org/2000/svg"
   xmlns:sodipodi="http://sodipodi.sourceforge.net/DTD/sodipodi-0.dtd"
   xmlns:inkscape="http://www.inkscape.org/namespaces/inkscape"
   width="7706.5249"
   height="1023.9998"
   viewBox="0 0 2039.018 270.93329"
   version="1.1"
   id="svg821"
   sodipodi:docname="logo-text.svg"
   inkscape:version="0.92.4 (5da689c313, 2019-01-14)">
  <defs
     id="defs815">
    <clipPath
       clipPathUnits="userSpaceOnUse"
       id="clipPath1609">
      <rect
         style="fill:#808080;fill-opacity:0.50196078;stroke:#808080;stroke-width:0;stroke-miterlimit:4;stroke-dasharray:none;stroke-opacity:0.50196078"
         id="rect1611"
         width="270.93329"
         height="270.93329"
         x="5e-07"
         y="26.066664"
         clip-path="none" />
    </clipPath>
    <clipPath
       clipPathUnits="userSpaceOnUse"
       id="clipPath1673">
      <rect
         style="fill:#808080;fill-opacity:0.50196078;stroke:#808080;stroke-width:0;stroke-miterlimit:4;stroke-dasharray:none;stroke-opacity:0.50196078"
         id="rect1675"
         width="270.93329"
         height="270.93329"
         x="5e-07"
         y="26.066664" />
    </clipPath>
  </defs>
  <sodipodi:namedview
     id="base"
     pagecolor="#ffffff"
     bordercolor="#666666"
     borderopacity="1.0"
     inkscape:pageopacity="0.0"
     inkscape:pageshadow="2"
     inkscape:zoom="0.125"
     inkscape:cx="2301.9341"
     inkscape:cy="802.63066"
     inkscape:document-units="mm"
     inkscape:current-layer="layer1"
     showgrid="false"
     units="px"
     inkscape:window-width="2560"
     inkscape:window-height="1330"
     inkscape:window-x="-12"
     inkscape:window-y="-12"
     inkscape:window-maximized="1"
     fit-margin-top="0"
     fit-margin-left="0"
     fit-margin-right="0"
     fit-margin-bottom="0"
     inkscape:pagecheckerboard="true" />
  <metadata
     id="metadata818">
    <rdf:RDF>
      <cc:Work
         rdf:about="">
        <dc:format>image/svg+xml</dc:format>
        <dc:type
           rdf:resource="http://purl.org/dc/dcmitype/StillImage" />
        <dc:title></dc:title>
      </cc:Work>
    </rdf:RDF>
  </metadata>
  <g
     inkscape:label="Layer 1"
     inkscape:groupmode="layer"
     id="layer1"
     transform="translate(-5e-7,-26.066664)">
    <g
       id="g1669"
       clip-path="url(#clipPath1673)">
      <ellipse
         ry="12.567802"
         rx="13.212309"
         cy="272.3768"
         cx="121.25156"
         id="path1370"
         style="fill:#ff7f0e;fill-opacity:1;stroke:#ff7f0e;stroke-width:13.26288319;stroke-miterlimit:4;stroke-dasharray:none;stroke-opacity:1" />
      <ellipse
         ry="12.567802"
         rx="13.212309"
         cy="154.59612"
         cx="151.86902"
         id="path1370-8"
         style="fill:#ff7f0e;fill-opacity:1;stroke:#ff7f0e;stroke-width:13.26288319;stroke-miterlimit:4;stroke-dasharray:none;stroke-opacity:1" />
      <path
         style="fill:#ff7f0e;fill-opacity:1;stroke:#ff7f0e;stroke-width:13.26288319;stroke-miterlimit:4;stroke-dasharray:none;stroke-opacity:1"
         d="m 226.67189,258.21152 a 13.212309,12.567802 0 0 1 -13.21231,12.5678 13.212309,12.567802 0 0 1 -13.21231,-12.5678 13.212309,12.567802 0 0 1 13.21231,-12.56781 13.212309,12.567802 0 0 1 13.21231,12.56781 z"
         id="path1370-8-8"
         inkscape:connector-curvature="0" />
      <path
         style="fill:#ff7f0e;fill-opacity:1;stroke:#ff7f0e;stroke-width:13.26288319;stroke-miterlimit:4;stroke-dasharray:none;stroke-opacity:1"
         d="m 252.08131,121.33591 a 13.212309,12.567802 0 0 1 -13.21231,12.5678 13.212309,12.567802 0 0 1 -13.21231,-12.5678 13.212309,12.567802 0 0 1 13.21231,-12.56781 13.212309,12.567802 0 0 1 13.21231,12.56781 z"
         id="path1370-8-8-6"
         inkscape:connector-curvature="0" />
      <ellipse
         ry="12.567805"
         rx="13.212307"
         cy="72.425087"
         cx="60.046844"
         id="path1370-8-8-6-4"
         style="fill:#1f77b4;fill-opacity:1;stroke:#1f77b4;stroke-width:13.26288605;stroke-miterlimit:4;stroke-dasharray:none;stroke-opacity:1" />
      <ellipse
         ry="12.567805"
         rx="13.212307"
         cy="53.181675"
         cx="129.53691"
         id="path1370-8-8-6-4-2"
         style="fill:#1f77b4;fill-opacity:1;stroke:#1f77b4;stroke-width:13.26288605;stroke-miterlimit:4;stroke-dasharray:none;stroke-opacity:1" />
      <ellipse
         ry="12.567805"
         rx="13.212307"
         cy="181.47104"
         cx="99.602722"
         id="path1370-8-8-6-4-2-8"
         style="fill:#1f77b4;fill-opacity:1;stroke:#1f77b4;stroke-width:13.26288605;stroke-miterlimit:4;stroke-dasharray:none;stroke-opacity:1" />
      <path
         style="fill:#1f77b4;fill-opacity:1;stroke:#1f77b4;stroke-width:13.26288605;stroke-miterlimit:4;stroke-dasharray:none;stroke-opacity:1"
         d="m 230.79812,111.95411 a 13.212307,12.567805 0 0 1 -13.2123,12.5678 13.212307,12.567805 0 0 1 -13.21231,-12.5678 13.212307,12.567805 0 0 1 13.21231,-12.567806 13.212307,12.567805 0 0 1 13.2123,12.567806 z"
         id="path1370-8-8-6-4-2-8-9"
         inkscape:connector-curvature="0" />
      <path
         inkscape:connector-curvature="0"
         id="path1477"
         d="M -80.523588,292.03856 C 383.44216,137.56766 383.44216,137.56766 383.44216,137.56766"
         style="fill:none;stroke:#ff7f0e;stroke-width:20.68688583;stroke-linecap:butt;stroke-linejoin:miter;stroke-miterlimit:4;stroke-dasharray:none;stroke-opacity:1" />
      <path
         inkscape:connector-curvature="0"
         id="path1479"
         d="M -129.80924,218.48676 C 407.51434,-49.910954 407.51434,-49.910954 407.51434,-49.910954"
         style="fill:none;stroke:#1f77bf;stroke-width:20.06470108;stroke-linecap:butt;stroke-linejoin:miter;stroke-miterlimit:4;stroke-dasharray:none;stroke-opacity:1" />
      <path
         style="fill:#1f77b4;fill-opacity:1;stroke:#1f77b4;stroke-width:13.26288605;stroke-miterlimit:4;stroke-dasharray:none;stroke-opacity:1"
         d="M 261.4169,61.734299 A 13.212307,12.567805 0 0 1 248.20459,74.302104 13.212307,12.567805 0 0 1 234.99228,61.734299 13.212307,12.567805 0 0 1 248.20459,49.166493 13.212307,12.567805 0 0 1 261.4169,61.734299 Z"
         id="path1370-8-8-6-4-2-8-9-4"
         inkscape:connector-curvature="0" />
      <ellipse
         ry="12.567802"
         rx="13.212309"
         cy="175.89249"
         cx="71.806679"
         id="path1370-0"
         style="fill:#ff7f0e;fill-opacity:1;stroke:#ff7f0e;stroke-width:13.26288319;stroke-miterlimit:4;stroke-dasharray:none;stroke-opacity:1" />
      <ellipse
         ry="12.567805"
         rx="13.212307"
         cy="194.69447"
         cx="24.552364"
         id="path1370-8-8-6-4-2-4"
         style="fill:#1f77b4;fill-opacity:1;stroke:#1f77b4;stroke-width:13.26288605;stroke-miterlimit:4;stroke-dasharray:none;stroke-opacity:1" />
    </g>
    <g
       aria-label="linear"
       style="font-style:normal;font-variant:normal;font-weight:normal;font-stretch:normal;font-size:350.96234131px;line-height:1.25;font-family:'Roboto Condensed';-inkscape-font-specification:'Roboto Condensed, ';letter-spacing:0px;word-spacing:0px;fill:#1f77b4;fill-opacity:1;stroke:none;stroke-width:8.77405834"
       id="text2302">
      <path
         d="m 330.63713,293.40125 h -30.3322 V 30.179489 h 30.3322 z"
         style="font-style:normal;font-variant:normal;font-weight:normal;font-stretch:normal;font-family:'Roboto Condensed';-inkscape-font-specification:'Roboto Condensed, ';fill:#1f77b4;fill-opacity:1;stroke-width:8.77405834"
         id="path77"
         inkscape:connector-curvature="0" />
      <path
         d="m 410.83751,293.40125 h -30.3322 V 107.98071 h 30.3322 z M 378.79163,58.798 q 0,-7.711575 4.28421,-13.023993 4.2842,-5.312418 12.85262,-5.312418 8.56842,0 12.85263,5.483787 4.45557,5.312418 4.45557,12.852624 0,7.711575 -4.28421,12.852625 -4.2842,5.14105 -13.02399,5.14105 -8.56842,0 -12.85262,-5.14105 -4.28421,-5.14105 -4.28421,-12.852625 z"
         style="font-style:normal;font-variant:normal;font-weight:normal;font-stretch:normal;font-family:'Roboto Condensed';-inkscape-font-specification:'Roboto Condensed, ';fill:#1f77b4;fill-opacity:1;stroke-width:8.77405834"
         id="path79"
         inkscape:connector-curvature="0" />
      <path
         d="m 486.92504,107.98071 0.85685,20.0501 q 8.39704,-11.13895 19.70735,-17.30821 11.48168,-6.16926 25.36252,-6.16926 11.31031,0 20.5642,3.77011 9.25389,3.59873 15.76588,11.82441 6.512,8.05431 9.93937,20.90694 3.59873,12.68126 3.59873,30.8463 V 293.40125 H 552.55911 V 171.55836 q 0,-21.76378 -7.36883,-30.8463 -7.19747,-9.25389 -21.76378,-9.25389 -11.31031,0 -20.39283,7.54021 -8.91116,7.54021 -14.39494,19.70736 v 134.69551 h -30.3322 V 107.98071 Z"
         style="font-style:normal;font-variant:normal;font-weight:normal;font-stretch:normal;font-family:'Roboto Condensed';-inkscape-font-specification:'Roboto Condensed, ';fill:#1f77b4;fill-opacity:1;stroke-width:8.77405834"
         id="path81"
         inkscape:connector-curvature="0" />
      <path
         d="m 694.62345,296.82861 q -16.62273,0 -29.98946,-4.96968 -13.36673,-4.96968 -22.79198,-15.08041 -9.25389,-10.2821 -14.22358,-25.87662 -4.96968,-15.59452 -4.96968,-36.84419 v -20.90694 q 0,-24.50567 5.82653,-41.29977 5.82652,-16.96546 15.25178,-27.41893 9.59662,-10.62484 21.93514,-15.25178 12.33852,-4.62695 25.53389,-4.62695 17.47957,0 29.81809,5.82653 12.33851,5.65515 20.22146,16.79409 7.88294,11.13895 11.48168,27.41894 3.59873,16.27999 3.59873,37.52966 V 209.7735 H 652.80958 v 4.28421 q 0,29.81809 11.13894,43.35619 11.31031,13.53809 32.38862,13.53809 7.71157,0 13.88083,-1.54231 6.16926,-1.54232 11.31031,-4.28421 5.14105,-2.91326 9.42526,-6.68336 4.28421,-3.94148 8.05431,-8.56842 l 15.76589,19.19325 q -3.77011,5.31242 -9.08253,10.2821 -5.31241,4.96968 -12.68125,8.91116 -7.36884,3.7701 -16.96547,6.16926 -9.42525,2.39915 -21.42104,2.39915 z m -3.42736,-166.22728 q -7.88295,0 -14.56631,2.39916 -6.68337,2.39915 -11.82442,8.56841 -4.96968,5.9979 -8.05431,16.28 -3.08463,10.2821 -3.7701,25.87661 h 73.00291 v -4.11284 q -0.51411,-10.7962 -2.39916,-19.70735 -1.71368,-9.08253 -5.65515,-15.59452 -3.77011,-6.512 -10.2821,-10.11073 -6.512,-3.59874 -16.45136,-3.59874 z"
         style="font-style:normal;font-variant:normal;font-weight:normal;font-stretch:normal;font-family:'Roboto Condensed';-inkscape-font-specification:'Roboto Condensed, ';fill:#1f77b4;fill-opacity:1;stroke-width:8.77405834"
         id="path83"
         inkscape:connector-curvature="0" />
      <path
         d="m 888.26968,293.40125 q -1.54232,-3.42737 -2.57053,-8.73979 -0.85684,-5.48379 -1.37094,-11.48168 -3.256,4.79832 -7.54021,9.08252 -4.11284,4.28421 -9.42526,7.54021 -5.14105,3.256 -11.31031,5.14105 -5.99789,1.88505 -12.85262,1.88505 -12.16715,0 -22.10652,-3.42736 -9.76799,-3.42737 -16.79409,-10.2821 -7.0261,-6.85474 -10.79621,-16.7941 -3.7701,-10.11073 -3.7701,-23.47746 0,-13.36673 4.62694,-24.67704 4.62695,-11.31031 13.70947,-19.53599 9.08252,-8.22568 22.79199,-12.85263 13.70946,-4.79831 31.87451,-4.79831 h 21.0783 v -19.70736 q 0,-16.62273 -7.36884,-23.64883 -7.36883,-7.0261 -22.44925,-7.0261 -7.36884,0 -13.19536,2.39916 -5.65515,2.22779 -9.59662,6.16926 -3.94148,3.94147 -5.9979,9.25389 -2.05642,5.14105 -2.05642,10.96757 h -30.33219 q 0,-9.93936 4.28421,-19.70736 4.45557,-9.93936 12.50989,-17.65094 8.22568,-7.88294 19.87872,-12.68125 11.65305,-4.79832 26.04799,-4.79832 12.85262,0 23.47746,3.08463 10.7962,3.08463 18.50778,9.93937 7.88294,6.85473 12.16715,17.65094 4.28421,10.7962 4.28421,26.39072 v 91.33932 q 0,4.62694 0.34274,9.76799 0.34273,5.14105 1.02821,10.11074 0.85684,4.96968 1.88505,9.59662 1.19958,4.45558 2.57052,8.22568 v 2.7419 z m -40.44293,-24.16294 q 6.34063,0 11.99579,-1.88505 5.65515,-1.88505 10.2821,-4.79831 4.62694,-3.08463 8.05431,-6.85474 3.59873,-3.94147 5.65515,-8.05431 v -44.21303 h -15.93725 q -10.96758,0 -19.87873,2.39916 -8.73978,2.39915 -15.08041,7.0261 -6.16926,4.45558 -9.59663,11.13894 -3.256,6.68337 -3.256,15.25178 0,8.39705 1.71369,14.22357 1.71368,5.65516 5.14105,9.25389 3.42736,3.42737 8.56841,4.96969 5.31242,1.54231 12.33852,1.54231 z"
         style="font-style:normal;font-variant:normal;font-weight:normal;font-stretch:normal;font-family:'Roboto Condensed';-inkscape-font-specification:'Roboto Condensed, ';fill:#1f77b4;fill-opacity:1;stroke-width:8.77405834"
         id="path85"
         inkscape:connector-curvature="0" />
      <path
         d="m 1037.3601,136.42785 q -3.5987,-0.68547 -6.6833,-0.85684 -3.0847,-0.34273 -7.0261,-0.34273 -12.3385,0 -20.3929,6.85473 -7.8829,6.85473 -12.16711,18.67915 V 293.40125 H 960.7585 V 107.98071 h 29.47535 l 0.51411,18.85052 q 5.65515,-10.2821 14.05224,-16.27999 8.5684,-5.9979 20.3928,-5.9979 1.3709,0 3.0846,0.34274 1.8851,0.17137 3.5988,0.51411 1.7136,0.34273 3.0846,0.85684 1.5423,0.34273 2.2278,0.68547 z"
         style="font-style:normal;font-variant:normal;font-weight:normal;font-stretch:normal;font-family:'Roboto Condensed';-inkscape-font-specification:'Roboto Condensed, ';fill:#1f77b4;fill-opacity:1;stroke-width:8.77405834"
         id="path87"
         inkscape:connector-curvature="0" />
    </g>
    <g
       aria-label="models"
       style="font-style:normal;font-variant:normal;font-weight:normal;font-stretch:normal;font-size:350.07662964px;line-height:1.25;font-family:'Roboto Condensed';-inkscape-font-specification:'Roboto Condensed, ';letter-spacing:0px;word-spacing:0px;fill:#ff7f0e;fill-opacity:1;stroke:none;stroke-width:8.75191593"
       id="text2319">
      <path
         d="m 1090.666,107.09025 0.6837,17.09359 q 8.034,-9.74335 18.9739,-15.04236 11.1108,-5.46994 25.6404,-5.46994 14.0167,0 25.2985,6.32462 11.4527,6.32463 17.9482,20.5123 7.8631,-12.13644 19.8286,-19.48668 12.1365,-7.35024 28.7172,-7.35024 12.4783,0 22.2217,3.93152 9.7433,3.76059 16.4098,11.96551 6.6665,8.20492 10.0852,20.85417 3.5897,12.64926 3.5897,30.08471 v 121.5354 h -30.0847 V 170.33652 q 0,-11.62364 -2.2222,-19.31575 -2.2221,-7.69212 -6.3246,-12.30738 -4.1025,-4.61527 -9.9143,-6.32463 -5.8118,-1.8803 -12.9911,-1.8803 -7.1793,0 -12.8202,2.90591 -5.6409,2.90591 -9.7433,8.03399 -3.9316,5.12807 -6.4956,11.96551 -2.3931,6.83743 -3.0768,14.70048 v 0.85468 123.07382 h -30.4266 v -121.5354 q 0,-10.76895 -2.2222,-18.29013 -2.0512,-7.69212 -6.1537,-12.47832 -4.1024,-4.7862 -9.9143,-7.00837 -5.8118,-2.22217 -12.9911,-2.22217 -12.6492,0 -20.3414,6.32463 -7.6921,6.15369 -11.9655,16.58078 v 138.62898 h -30.0847 v -184.9526 z"
         style="font-style:normal;font-variant:normal;font-weight:normal;font-stretch:normal;font-family:'Roboto Condensed';-inkscape-font-specification:'Roboto Condensed, ';fill:#ff7f0e;fill-opacity:1;stroke-width:8.75191593"
         id="path64"
         inkscape:connector-curvature="0" />
      <path
         d="m 1319.0363,191.01976 q 0,-21.70886 5.4699,-37.94776 5.6409,-16.40984 15.2133,-27.34974 9.7434,-10.93989 22.7345,-16.40984 12.9911,-5.64088 27.8625,-5.64088 15.0424,0 28.2044,5.64088 13.1621,5.46995 22.7345,16.40984 9.7433,10.9399 15.2133,27.34974 5.6409,16.2389 5.6409,37.94776 v 17.43545 q 0,21.53792 -5.6409,37.94776 -5.47,16.23891 -15.2133,27.1788 -9.5724,10.9399 -22.5635,16.40985 -12.9912,5.46994 -28.0335,5.46994 -15.0424,0 -28.2044,-5.46994 -12.9911,-5.46995 -22.7345,-16.40985 -9.5724,-10.93989 -15.2133,-27.1788 -5.4699,-16.40984 -5.4699,-37.94776 z m 30.2556,17.43545 q 0,15.38423 3.0769,26.83693 3.2477,11.45271 8.7177,19.14482 5.6409,7.52118 13.1621,11.4527 7.5211,3.76059 16.4098,3.76059 41.1955,0 41.1955,-61.19504 v -17.43545 q 0,-15.21329 -3.2477,-26.666 -3.0769,-11.4527 -8.7178,-19.14481 -5.4699,-7.69212 -13.162,-11.62364 -7.5212,-3.93152 -16.4099,-3.93152 -8.7177,0 -16.2389,3.93152 -7.5212,3.93152 -12.9911,11.62364 -5.47,7.69211 -8.7177,19.14481 -3.0769,11.45271 -3.0769,26.666 z"
         style="font-style:normal;font-variant:normal;font-weight:normal;font-stretch:normal;font-family:'Roboto Condensed';-inkscape-font-specification:'Roboto Condensed, ';fill:#ff7f0e;fill-opacity:1;stroke-width:8.75191593"
         id="path66"
         inkscape:connector-curvature="0" />
      <path
         d="m 1494.7583,191.19069 q 0,-22.73447 4.4443,-39.31524 4.4444,-16.58078 12.4784,-27.1788 8.2049,-10.76896 19.6576,-15.89704 11.4527,-5.12807 25.2985,-5.12807 13.8458,0 23.931,5.64088 10.2562,5.46995 17.4355,15.89703 V 29.485374 h 30.2556 V 292.04285 h -27.6916 l -1.5384,-19.82856 q -7.1793,11.28176 -17.6064,17.26452 -10.4271,5.98275 -24.9566,5.98275 -13.6749,0 -25.1276,-5.29901 -11.2818,-5.46995 -19.4867,-16.2389 -8.034,-10.76896 -12.6493,-27.00787 -4.4443,-16.40984 -4.4443,-38.46057 z m 30.2557,17.26452 q 0,31.11033 9.2305,45.81081 9.2305,14.52955 30.0847,14.52955 12.6493,0 20.6832,-6.32463 8.034,-6.32462 12.9912,-16.40984 v -93.33097 q -5.1281,-9.74335 -13.333,-15.89704 -8.034,-6.32463 -20.1705,-6.32463 -21.0251,0 -30.2556,14.87142 -9.2305,14.87142 -9.2305,45.81081 z"
         style="font-style:normal;font-variant:normal;font-weight:normal;font-stretch:normal;font-family:'Roboto Condensed';-inkscape-font-specification:'Roboto Condensed, ';fill:#ff7f0e;fill-opacity:1;stroke-width:8.75191593"
         id="path68"
         inkscape:connector-curvature="0" />
      <path
         d="m 1740.906,295.46156 q -16.5808,0 -29.9138,-4.95714 -13.333,-4.95714 -22.7345,-15.04235 -9.2305,-10.25615 -14.1877,-25.81132 -4.9571,-15.55516 -4.9571,-36.7512 v -20.85418 q 0,-24.44383 5.8118,-41.19554 5.8118,-16.92265 15.2133,-27.34974 9.5724,-10.59802 21.8798,-15.21329 12.3074,-4.61526 25.4694,-4.61526 17.4355,0 29.7429,5.81181 12.3074,5.64089 20.1704,16.75172 7.8631,11.11083 11.4527,27.34973 3.5897,16.23891 3.5897,37.43496 v 17.60639 h -103.2453 v 4.2734 q 0,29.74283 11.1108,43.24677 11.2818,13.50393 32.3069,13.50393 7.6921,0 13.8458,-1.53842 6.1537,-1.53843 11.2818,-4.2734 5.1281,-2.90591 9.4015,-6.6665 4.2734,-3.93152 8.0339,-8.54679 l 15.7261,19.14482 q -3.7605,5.29901 -9.0596,10.25615 -5.299,4.95714 -12.6492,8.88866 -7.3503,3.76059 -16.9227,6.15369 -9.4014,2.3931 -21.3669,2.3931 z m -3.4188,-165.80777 q -7.863,0 -14.5295,2.3931 -6.6665,2.3931 -11.7946,8.54679 -4.9571,5.98275 -8.034,16.23891 -3.0768,10.25615 -3.7606,25.81131 h 72.8187 v -4.10246 q -0.5128,-10.76896 -2.3931,-19.65762 -1.7093,-9.0596 -5.6409,-15.55517 -3.7606,-6.49556 -10.2561,-10.08521 -6.4956,-3.58965 -16.4099,-3.58965 z"
         style="font-style:normal;font-variant:normal;font-weight:normal;font-stretch:normal;font-family:'Roboto Condensed';-inkscape-font-specification:'Roboto Condensed, ';fill:#ff7f0e;fill-opacity:1;stroke-width:8.75191593"
         id="path70"
         inkscape:connector-curvature="0" />
      <path
         d="m 1871.501,292.04285 h -30.2557 V 29.485374 h 30.2557 z"
         style="font-style:normal;font-variant:normal;font-weight:normal;font-stretch:normal;font-family:'Roboto Condensed';-inkscape-font-specification:'Roboto Condensed, ';fill:#ff7f0e;fill-opacity:1;stroke-width:8.75191593"
         id="path72"
         inkscape:connector-curvature="0" />
      <path
         d="m 2008.7624,244.69362 q 0,-5.12808 -1.8803,-9.23054 -1.8803,-4.2734 -6.1537,-8.03399 -4.2734,-3.93152 -11.1108,-7.69211 -6.6665,-3.76059 -16.5808,-8.20492 -12.8202,-5.29901 -23.0763,-10.42709 -10.0852,-5.12807 -17.0936,-11.28176 -6.8374,-6.32463 -10.598,-14.35862 -3.5897,-8.20492 -3.5897,-19.31575 0,-10.93989 4.1025,-20.5123 4.2734,-9.57241 11.9655,-16.58078 7.6921,-7.1793 18.4611,-11.28176 10.7689,-4.10246 24.1019,-4.10246 14.0168,0 25.1276,4.27339 11.1108,4.2734 18.8029,11.96551 7.6921,7.52118 11.7946,17.77733 4.1025,10.25615 4.1025,22.05073 h -30.0847 q 0,-5.64089 -2.0513,-10.9399 -1.8803,-5.46995 -5.8118,-9.74334 -3.7606,-4.2734 -9.2305,-6.83744 -5.47,-2.56403 -12.6493,-2.56403 -7.6921,0 -13.162,2.22216 -5.2991,2.05123 -8.7178,5.64088 -3.4187,3.41872 -5.128,8.03399 -1.5385,4.61527 -1.5385,9.57241 0,5.12807 1.3675,8.88866 1.5384,3.58965 5.1281,6.83744 3.5896,3.24778 9.7433,6.49556 6.3247,3.24778 16.068,7.52118 14.0167,5.46994 24.7857,11.11083 10.9399,5.46994 18.2901,12.13644 7.3503,6.49556 11.1109,14.87142 3.7606,8.37586 3.7606,19.48669 0,12.13644 -4.4444,22.05072 -4.2734,9.74335 -12.3074,16.75172 -8.0339,6.83743 -19.3157,10.59802 -11.2818,3.58965 -24.9566,3.58965 -15.7261,0 -27.8626,-4.7862 -12.1364,-4.95714 -20.3414,-12.99113 -8.2049,-8.20492 -12.4783,-18.80294 -4.1024,-10.59802 -4.1024,-22.05072 h 30.4266 q 0.3418,9.74334 3.5896,16.06797 3.2478,6.32462 8.034,10.08521 4.9571,3.76059 10.9399,5.29901 5.9827,1.36749 11.7946,1.36749 15.0423,0 22.9054,-6.6665 7.863,-6.83743 7.863,-18.29013 z"
         style="font-style:normal;font-variant:normal;font-weight:normal;font-stretch:normal;font-family:'Roboto Condensed';-inkscape-font-specification:'Roboto Condensed, ';fill:#ff7f0e;fill-opacity:1;stroke-width:8.75191593"
         id="path74"
         inkscape:connector-curvature="0" />
    </g>
  </g>
</svg>
